<svg width="973" height="992" viewBox="0 0 973 992" fill="none" xmlns="http://www.w3.org/2000/svg">
<path d="M68.9639 566.679C68.9639 801.011 258.928 990.975 493.26 990.975C727.593 990.975 917.557 801.011 917.557 566.679C917.557 332.346 727.593 142.382 493.26 142.382C258.928 142.382 68.9639 332.346 68.9639 566.679Z" stroke="#525252" stroke-miterlimit="10"/>
<path d="M93.4211 542.265C93.4211 763.09 272.435 942.105 493.261 942.105C714.086 942.105 893.101 763.091 893.101 542.265C893.101 321.44 714.086 142.425 493.261 142.425C272.435 142.425 93.4211 321.44 93.4211 542.265Z" stroke="#525252" stroke-miterlimit="10"/>
<path d="M116.263 516.322C116.263 722.82 283.663 890.219 490.16 890.219C696.658 890.219 864.058 722.82 864.058 516.322C864.058 309.825 696.658 142.425 490.16 142.425C283.663 142.425 116.263 309.825 116.263 516.322Z" stroke="#525252" stroke-miterlimit="10"/>
<path d="M243.068 729.206C377.311 863.449 594.962 863.449 729.205 729.206C863.448 594.963 863.448 377.312 729.205 243.069C594.962 108.826 377.311 108.826 243.068 243.069C108.825 377.312 108.825 594.963 243.068 729.206Z" stroke="#525252" stroke-miterlimit="10"/>
<path d="M172.818 455.818C172.818 628.9 313.129 769.21 486.211 769.21C659.293 769.21 799.603 628.9 799.604 455.818C799.604 282.736 659.293 142.425 486.211 142.425C313.129 142.425 172.818 282.736 172.818 455.818Z" stroke="#525252" stroke-miterlimit="10"/>
<path d="M209.929 428.431C209.929 586.412 336.781 714.48 493.261 714.48C649.74 714.48 776.592 586.412 776.592 428.431C776.592 270.451 649.74 142.383 493.261 142.383C336.781 142.383 209.929 270.451 209.929 428.431Z" stroke="#525252" stroke-miterlimit="10"/>
<path d="M345.204 568.887C345.204 649.272 409.761 714.438 489.396 714.438C569.031 714.438 633.588 649.272 633.588 568.887C633.588 488.502 569.031 423.336 489.396 423.336C409.761 423.336 345.204 488.502 345.204 568.887Z" stroke="#525252" stroke-miterlimit="10"/>
<path d="M370.255 594.192C370.255 660.625 423.596 714.48 489.396 714.48C555.196 714.48 608.537 660.625 608.537 594.192C608.537 527.76 555.196 473.905 489.396 473.905C423.596 473.905 370.255 527.76 370.255 594.192Z" stroke="#525252" stroke-miterlimit="10"/>
<path d="M399 619.286C399 671.837 441.202 714.437 493.26 714.437C545.318 714.437 587.52 671.837 587.52 619.286C587.52 566.735 545.318 524.134 493.26 524.134C441.202 524.134 399 566.735 399 619.286Z" stroke="#525252" stroke-miterlimit="10"/>
<path d="M319.474 542.902C319.474 637.638 395.55 714.437 489.396 714.437C583.241 714.437 659.318 637.638 659.318 542.902C659.318 448.165 583.242 371.366 489.396 371.366C395.55 371.366 319.474 448.165 319.474 542.902Z" stroke="#525252" stroke-miterlimit="10"/>
<path d="M296.97 520.186C296.97 627.468 383.122 714.437 489.396 714.437C595.669 714.437 681.821 627.468 681.821 520.186C681.821 412.904 595.669 325.934 489.396 325.934C383.122 325.934 296.97 412.904 296.97 520.186Z" stroke="#525252" stroke-miterlimit="10"/>
<path d="M274.212 497.216C274.212 617.208 370.553 714.48 489.396 714.48C608.239 714.48 704.58 617.208 704.58 497.216C704.58 377.224 608.239 279.951 489.396 279.951C370.553 279.951 274.212 377.224 274.212 497.216Z" stroke="#525252" stroke-miterlimit="10"/>
<path d="M249.714 472.504C249.714 606.12 357.024 714.438 489.397 714.438C621.77 714.438 729.08 606.12 729.08 472.504C729.08 338.888 621.77 230.571 489.397 230.571C357.024 230.571 249.714 338.888 249.714 472.504Z" stroke="#525252" stroke-miterlimit="10"/>
<path d="M225.851 447.453C225.851 594.928 344.281 714.48 490.373 714.48C636.464 714.48 754.895 594.928 754.895 447.453C754.895 299.978 636.464 180.426 490.373 180.426C344.281 180.426 225.851 299.978 225.851 447.453Z" stroke="#525252" stroke-miterlimit="10"/>
</svg>
