<svg width="973" height="992" viewBox="0 0 973 992" fill="none" xmlns="http://www.w3.org/2000/svg">
<path d="M903.31 425.296C903.31 190.964 713.347 0.999947 479.014 0.999944C244.682 0.999941 54.7178 190.964 54.7178 425.296C54.7178 659.629 244.682 849.593 479.014 849.593C713.347 849.593 903.31 659.629 903.31 425.296Z" stroke="#525252" stroke-miterlimit="10"/>
<path d="M878.853 449.71C878.853 228.885 699.839 49.8703 479.014 49.8703C258.188 49.8703 79.1738 228.885 79.1738 449.71C79.1738 670.535 258.188 849.55 479.014 849.55C699.839 849.55 878.853 670.536 878.853 449.71Z" stroke="#525252" stroke-miterlimit="10"/>
<path d="M856.011 475.653C856.011 269.155 688.612 101.756 482.114 101.756C275.616 101.756 108.217 269.155 108.217 475.653C108.217 682.15 275.616 849.55 482.114 849.55C688.612 849.55 856.011 682.15 856.011 475.653Z" stroke="#525252" stroke-miterlimit="10"/>
<path d="M729.205 262.769C594.962 128.526 377.311 128.526 243.068 262.769C108.825 397.012 108.825 614.663 243.068 748.906C377.311 883.15 594.962 883.15 729.205 748.906C863.448 614.663 863.448 397.012 729.205 262.769Z" stroke="#525252" stroke-miterlimit="10"/>
<path d="M799.456 536.157C799.456 363.075 659.145 222.765 486.063 222.765C312.982 222.765 172.671 363.075 172.671 536.157C172.671 709.239 312.982 849.55 486.063 849.55C659.145 849.55 799.456 709.239 799.456 536.157Z" stroke="#525252" stroke-miterlimit="10"/>
<path d="M762.345 563.544C762.345 405.563 635.493 277.495 479.014 277.495C322.534 277.495 195.683 405.563 195.683 563.544C195.683 721.524 322.534 849.592 479.014 849.592C635.493 849.592 762.345 721.524 762.345 563.544Z" stroke="#525252" stroke-miterlimit="10"/>
<path d="M627.07 423.088C627.07 342.703 562.514 277.538 482.878 277.538C403.243 277.538 338.687 342.703 338.687 423.088C338.687 503.474 403.243 568.639 482.878 568.639C562.514 568.639 627.07 503.474 627.07 423.088Z" stroke="#525252" stroke-miterlimit="10"/>
<path d="M602.019 397.783C602.019 331.35 548.678 277.495 482.878 277.495C417.079 277.495 363.737 331.35 363.737 397.783C363.737 464.215 417.079 518.07 482.878 518.07C548.678 518.07 602.019 464.215 602.019 397.783Z" stroke="#525252" stroke-miterlimit="10"/>
<path d="M573.274 372.689C573.274 320.138 531.073 277.538 479.015 277.538C426.956 277.538 384.755 320.138 384.755 372.689C384.755 425.24 426.956 467.841 479.015 467.841C531.073 467.841 573.274 425.24 573.274 372.689Z" stroke="#525252" stroke-miterlimit="10"/>
<path d="M652.801 449.073C652.801 354.337 576.724 277.538 482.878 277.538C389.033 277.538 312.956 354.337 312.956 449.073C312.956 543.81 389.033 620.609 482.878 620.609C576.724 620.609 652.801 543.81 652.801 449.073Z" stroke="#525252" stroke-miterlimit="10"/>
<path d="M675.305 471.789C675.305 364.507 589.153 277.538 482.879 277.538C376.605 277.538 290.453 364.507 290.453 471.789C290.453 579.071 376.605 666.041 482.879 666.041C589.153 666.041 675.305 579.071 675.305 471.789Z" stroke="#525252" stroke-miterlimit="10"/>
<path d="M698.062 494.759C698.062 374.768 601.721 277.495 482.878 277.495C364.035 277.495 267.694 374.768 267.694 494.759C267.694 614.751 364.035 712.024 482.878 712.024C601.721 712.024 698.062 614.751 698.062 494.759Z" stroke="#525252" stroke-miterlimit="10"/>
<path d="M722.561 519.471C722.561 385.855 615.251 277.537 482.877 277.537C350.504 277.537 243.194 385.855 243.194 519.471C243.194 653.087 350.504 761.404 482.877 761.404C615.251 761.404 722.561 653.087 722.561 519.471Z" stroke="#525252" stroke-miterlimit="10"/>
<path d="M746.424 544.522C746.424 397.047 627.993 277.495 481.902 277.495C335.81 277.495 217.38 397.047 217.38 544.522C217.38 691.997 335.81 811.549 481.902 811.549C627.993 811.549 746.424 691.997 746.424 544.522Z" stroke="#525252" stroke-miterlimit="10"/>
</svg>
